<?xml version="1.0" encoding="UTF-8" standalone="no"?>
<!DOCTYPE svg PUBLIC "-//W3C//DTD SVG 1.1//EN"
 "http://www.w3.org/Graphics/SVG/1.1/DTD/svg11.dtd">
<!-- Generated by graphviz version 2.40.1 (20161225.0304)
 -->
<!-- Title: models_diagram Pages: 1 -->
<svg width="974pt" height="960pt"
 viewBox="0.00 0.00 974.00 960.00" xmlns="http://www.w3.org/2000/svg" xmlns:xlink="http://www.w3.org/1999/xlink">
<g id="graph0" class="graph" transform="scale(1 1) rotate(0) translate(36 924)">
<title>models_diagram</title>
<polygon fill="#ffffff" stroke="transparent" points="-36,36 -36,-924 938,-924 938,36 -36,36"/>
<!-- Calendar -->
<g id="node1" class="node">
<title>Calendar</title>
<polygon fill="#add8e6" stroke="transparent" points="547.1443,-319.0459 547.1443,-341.0459 630.1443,-341.0459 630.1443,-319.0459 547.1443,-319.0459"/>
<polygon fill="none" stroke="#000000" points="547.1443,-319.0459 547.1443,-341.0459 630.1443,-341.0459 630.1443,-319.0459 547.1443,-319.0459"/>
<text text-anchor="start" x="570.5973" y="-328.0459" font-family="Times,serif" font-weight="bold" font-size="10.00" fill="#000000">Calendar</text>
<polygon fill="none" stroke="#000000" points="547.1443,-297.0459 547.1443,-319.0459 630.1443,-319.0459 630.1443,-297.0459 547.1443,-297.0459"/>
<text text-anchor="start" x="552.1443" y="-306.0459" font-family="Times,serif" text-decoration="underline" font-size="10.00" fill="#000000">id</text>
<text text-anchor="start" x="559.9233" y="-306.0459" font-family="Times,serif" font-size="10.00" fill="#000000">: NUMBER</text>
<polygon fill="none" stroke="#000000" points="547.1443,-275.0459 547.1443,-297.0459 630.1443,-297.0459 630.1443,-275.0459 547.1443,-275.0459"/>
<text text-anchor="start" x="552.1443" y="-283.0459" font-family="Times,serif" font-size="10.00" fill="#000000">type: ENUM</text>
<polygon fill="none" stroke="#000000" points="547.1443,-253.0459 547.1443,-275.0459 630.1443,-275.0459 630.1443,-253.0459 547.1443,-253.0459"/>
<text text-anchor="start" x="552.1443" y="-261.0459" font-family="Times,serif" font-size="10.00" fill="#000000">createdAt: DATE</text>
<polygon fill="none" stroke="#000000" points="547.1443,-231.0459 547.1443,-253.0459 630.1443,-253.0459 630.1443,-231.0459 547.1443,-231.0459"/>
<text text-anchor="start" x="551.8493" y="-239.0459" font-family="Times,serif" font-size="10.00" fill="#000000">updatedAt: DATE</text>
<polygon fill="none" stroke="#000000" points="547.1443,-209.0459 547.1443,-231.0459 630.1443,-231.0459 630.1443,-209.0459 547.1443,-209.0459"/>
<text text-anchor="start" x="552.1443" y="-217.0459" font-family="Times,serif" font-size="10.00" fill="#000000">deletedAt: DATE</text>
</g>
<!-- TeamCalandar -->
<g id="node11" class="node">
<title>TeamCalandar</title>
<polygon fill="#add8e6" stroke="transparent" points="447.9783,-127.132 447.9783,-149.132 549.9783,-149.132 549.9783,-127.132 447.9783,-127.132"/>
<polygon fill="none" stroke="#000000" points="447.9783,-127.132 447.9783,-149.132 549.9783,-149.132 549.9783,-127.132 447.9783,-127.132"/>
<text text-anchor="start" x="469.5483" y="-136.132" font-family="Times,serif" font-weight="bold" font-size="10.00" fill="#000000">TeamCalandar</text>
<polygon fill="none" stroke="#000000" points="447.9783,-105.132 447.9783,-127.132 549.9783,-127.132 549.9783,-105.132 447.9783,-105.132"/>
<text text-anchor="start" x="452.9783" y="-113.132" font-family="Times,serif" font-size="10.00" fill="#000000">createdAt: DATE</text>
<polygon fill="none" stroke="#000000" points="447.9783,-83.132 447.9783,-105.132 549.9783,-105.132 549.9783,-83.132 447.9783,-83.132"/>
<text text-anchor="start" x="452.9783" y="-91.132" font-family="Times,serif" font-size="10.00" fill="#000000">updatedAt: DATE</text>
<polygon fill="none" stroke="#000000" points="447.9783,-61.132 447.9783,-83.132 549.9783,-83.132 549.9783,-61.132 447.9783,-61.132"/>
<text text-anchor="start" x="452.9783" y="-70.132" font-family="Times,serif" text-decoration="underline" font-size="10.00" fill="#000000">TeamId</text>
<text text-anchor="start" x="484.0733" y="-70.132" font-family="Times,serif" font-size="10.00" fill="#000000">: NUMBER</text>
<polygon fill="none" stroke="#000000" points="447.9783,-39.132 447.9783,-61.132 549.9783,-61.132 549.9783,-39.132 447.9783,-39.132"/>
<text text-anchor="start" x="452.7403" y="-48.132" font-family="Times,serif" text-decoration="underline" font-size="10.00" fill="#000000">CalendarId</text>
<text text-anchor="start" x="497.1633" y="-48.132" font-family="Times,serif" font-size="10.00" fill="#000000">: NUMBER</text>
</g>
<!-- Calendar&#45;&gt;TeamCalandar -->
<g id="edge1" class="edge">
<title>Calendar&#45;&gt;TeamCalandar</title>
<path fill="none" stroke="#000000" stroke-width=".75" d="M555.5748,-208.9639C546.9037,-191.3706 537.5775,-172.448 529.047,-155.14"/>
<polygon fill="#000000" stroke="#000000" stroke-width=".75" points="528.8392,-154.7183 528.6085,-148.1428 527.5129,-152.0274 526.1866,-149.3365 526.1866,-149.3365 526.1866,-149.3365 527.5129,-152.0274 523.7648,-150.5301 528.8392,-154.7183 528.8392,-154.7183"/>
</g>
<!-- ChampionshipCalendar -->
<g id="node12" class="node">
<title>ChampionshipCalendar</title>
<polygon fill="#add8e6" stroke="transparent" points="751.6946,-391.6764 751.6946,-413.6764 875.6946,-413.6764 875.6946,-391.6764 751.6946,-391.6764"/>
<polygon fill="none" stroke="#000000" points="751.6946,-391.6764 751.6946,-413.6764 875.6946,-413.6764 875.6946,-391.6764 751.6946,-391.6764"/>
<text text-anchor="start" x="766.4806" y="-400.6764" font-family="Times,serif" font-weight="bold" font-size="10.00" fill="#000000">ChampionshipCalendar</text>
<polygon fill="none" stroke="#000000" points="751.6946,-369.6764 751.6946,-391.6764 875.6946,-391.6764 875.6946,-369.6764 751.6946,-369.6764"/>
<text text-anchor="start" x="756.6946" y="-377.6764" font-family="Times,serif" font-size="10.00" fill="#000000">createdAt: DATE</text>
<polygon fill="none" stroke="#000000" points="751.6946,-347.6764 751.6946,-369.6764 875.6946,-369.6764 875.6946,-347.6764 751.6946,-347.6764"/>
<text text-anchor="start" x="756.6946" y="-355.6764" font-family="Times,serif" font-size="10.00" fill="#000000">updatedAt: DATE</text>
<polygon fill="none" stroke="#000000" points="751.6946,-325.6764 751.6946,-347.6764 875.6946,-347.6764 875.6946,-325.6764 751.6946,-325.6764"/>
<text text-anchor="start" x="756.3366" y="-334.6764" font-family="Times,serif" text-decoration="underline" font-size="10.00" fill="#000000">ChampionshipId</text>
<text text-anchor="start" x="822.9996" y="-334.6764" font-family="Times,serif" font-size="10.00" fill="#000000">: NUMBER</text>
<polygon fill="none" stroke="#000000" points="751.6946,-303.6764 751.6946,-325.6764 875.6946,-325.6764 875.6946,-303.6764 751.6946,-303.6764"/>
<text text-anchor="start" x="756.6946" y="-312.6764" font-family="Times,serif" text-decoration="underline" font-size="10.00" fill="#000000">CalendarId</text>
<text text-anchor="start" x="801.1176" y="-312.6764" font-family="Times,serif" font-size="10.00" fill="#000000">: NUMBER</text>
</g>
<!-- Calendar&#45;&gt;ChampionshipCalendar -->
<g id="edge2" class="edge">
<title>Calendar&#45;&gt;ChampionshipCalendar</title>
<path fill="none" stroke="#000000" stroke-width=".75" d="M629.7765,-290.4825C662.1574,-302.4888 707.7642,-319.3991 745.4604,-333.3762"/>
<polygon fill="#000000" stroke="#000000" stroke-width=".75" points="745.8135,-333.5071 750.5006,-338.1247 748.6264,-334.5501 751.4393,-335.5931 751.4393,-335.5931 751.4393,-335.5931 748.6264,-334.5501 752.378,-333.0615 745.8135,-333.5071 745.8135,-333.5071"/>
</g>
<!-- Championship -->
<g id="node2" class="node">
<title>Championship</title>
<polygon fill="#add8e6" stroke="transparent" points="757.1161,-647.3291 757.1161,-669.3291 840.1161,-669.3291 840.1161,-647.3291 757.1161,-647.3291"/>
<polygon fill="none" stroke="#000000" points="757.1161,-647.3291 757.1161,-669.3291 840.1161,-669.3291 840.1161,-647.3291 757.1161,-647.3291"/>
<text text-anchor="start" x="769.4491" y="-656.3291" font-family="Times,serif" font-weight="bold" font-size="10.00" fill="#000000">Championship</text>
<polygon fill="none" stroke="#000000" points="757.1161,-625.3291 757.1161,-647.3291 840.1161,-647.3291 840.1161,-625.3291 757.1161,-625.3291"/>
<text text-anchor="start" x="762.1161" y="-634.3291" font-family="Times,serif" text-decoration="underline" font-size="10.00" fill="#000000">id</text>
<text text-anchor="start" x="769.8951" y="-634.3291" font-family="Times,serif" font-size="10.00" fill="#000000">: NUMBER</text>
<polygon fill="none" stroke="#000000" points="757.1161,-603.3291 757.1161,-625.3291 840.1161,-625.3291 840.1161,-603.3291 757.1161,-603.3291"/>
<text text-anchor="start" x="762.1161" y="-611.3291" font-family="Times,serif" font-size="10.00" fill="#000000">name: STRING</text>
<polygon fill="none" stroke="#000000" points="757.1161,-581.3291 757.1161,-603.3291 840.1161,-603.3291 840.1161,-581.3291 757.1161,-581.3291"/>
<text text-anchor="start" x="762.1161" y="-589.3291" font-family="Times,serif" font-size="10.00" fill="#000000">type: ENUM</text>
<polygon fill="none" stroke="#000000" points="757.1161,-559.3291 757.1161,-581.3291 840.1161,-581.3291 840.1161,-559.3291 757.1161,-559.3291"/>
<text text-anchor="start" x="762.1161" y="-567.3291" font-family="Times,serif" font-size="10.00" fill="#000000">createdAt: DATE</text>
<polygon fill="none" stroke="#000000" points="757.1161,-537.3291 757.1161,-559.3291 840.1161,-559.3291 840.1161,-537.3291 757.1161,-537.3291"/>
<text text-anchor="start" x="761.8211" y="-545.3291" font-family="Times,serif" font-size="10.00" fill="#000000">updatedAt: DATE</text>
</g>
<!-- Championship&#45;&gt;ChampionshipCalendar -->
<g id="edge3" class="edge">
<title>Championship&#45;&gt;ChampionshipCalendar</title>
<path fill="none" stroke="#000000" stroke-width=".75" d="M802.3319,-537.1225C804.6574,-500.6021 807.5254,-455.5614 809.7982,-419.8681"/>
<polygon fill="#000000" stroke="#000000" stroke-width=".75" points="809.8051,-419.7585 812.881,-413.9423 809.9958,-416.7646 810.1865,-413.7707 810.1865,-413.7707 810.1865,-413.7707 809.9958,-416.7646 807.4919,-413.599 809.8051,-419.7585 809.8051,-419.7585"/>
</g>
<!-- ChampionshipTeam -->
<g id="node13" class="node">
<title>ChampionshipTeam</title>
<polygon fill="#add8e6" stroke="transparent" points="479.1311,-657.0308 479.1311,-679.0308 603.1311,-679.0308 603.1311,-657.0308 479.1311,-657.0308"/>
<polygon fill="none" stroke="#000000" points="479.1311,-657.0308 479.1311,-679.0308 603.1311,-679.0308 603.1311,-657.0308 479.1311,-657.0308"/>
<text text-anchor="start" x="500.5811" y="-666.0308" font-family="Times,serif" font-weight="bold" font-size="10.00" fill="#000000">ChampionshipTeam</text>
<polygon fill="none" stroke="#000000" points="479.1311,-635.0308 479.1311,-657.0308 603.1311,-657.0308 603.1311,-635.0308 479.1311,-635.0308"/>
<text text-anchor="start" x="484.1311" y="-643.0308" font-family="Times,serif" font-size="10.00" fill="#000000">createdAt: DATE</text>
<polygon fill="none" stroke="#000000" points="479.1311,-613.0308 479.1311,-635.0308 603.1311,-635.0308 603.1311,-613.0308 479.1311,-613.0308"/>
<text text-anchor="start" x="484.1311" y="-621.0308" font-family="Times,serif" font-size="10.00" fill="#000000">updatedAt: DATE</text>
<polygon fill="none" stroke="#000000" points="479.1311,-591.0308 479.1311,-613.0308 603.1311,-613.0308 603.1311,-591.0308 479.1311,-591.0308"/>
<text text-anchor="start" x="483.7731" y="-600.0308" font-family="Times,serif" text-decoration="underline" font-size="10.00" fill="#000000">ChampionshipId</text>
<text text-anchor="start" x="550.4361" y="-600.0308" font-family="Times,serif" font-size="10.00" fill="#000000">: NUMBER</text>
<polygon fill="none" stroke="#000000" points="479.1311,-569.0308 479.1311,-591.0308 603.1311,-591.0308 603.1311,-569.0308 479.1311,-569.0308"/>
<text text-anchor="start" x="484.1311" y="-578.0308" font-family="Times,serif" text-decoration="underline" font-size="10.00" fill="#000000">TeamId</text>
<text text-anchor="start" x="515.2261" y="-578.0308" font-family="Times,serif" font-size="10.00" fill="#000000">: NUMBER</text>
</g>
<!-- Championship&#45;&gt;ChampionshipTeam -->
<g id="edge4" class="edge">
<title>Championship&#45;&gt;ChampionshipTeam</title>
<path fill="none" stroke="#000000" stroke-width=".75" d="M756.5414,-606.6782C716.8436,-609.8761 656.3087,-614.7526 609.5088,-618.5226"/>
<polygon fill="#000000" stroke="#000000" stroke-width=".75" points="609.272,-618.5416 603.0745,-616.3322 606.2817,-618.7825 603.2914,-619.0234 603.2914,-619.0234 603.2914,-619.0234 606.2817,-618.7825 603.5082,-621.7147 609.272,-618.5416 609.272,-618.5416"/>
</g>
<!-- Occurrence -->
<g id="node3" class="node">
<title>Occurrence</title>
<polygon fill="#add8e6" stroke="transparent" points="739.6877,-167.083 739.6877,-189.083 841.6877,-189.083 841.6877,-167.083 739.6877,-167.083"/>
<polygon fill="none" stroke="#000000" points="739.6877,-167.083 739.6877,-189.083 841.6877,-189.083 841.6877,-167.083 739.6877,-167.083"/>
<text text-anchor="start" x="767.6517" y="-176.083" font-family="Times,serif" font-weight="bold" font-size="10.00" fill="#000000">Occurrence</text>
<polygon fill="none" stroke="#000000" points="739.6877,-145.083 739.6877,-167.083 841.6877,-167.083 841.6877,-145.083 739.6877,-145.083"/>
<text text-anchor="start" x="744.6877" y="-154.083" font-family="Times,serif" text-decoration="underline" font-size="10.00" fill="#000000">id</text>
<text text-anchor="start" x="752.4667" y="-154.083" font-family="Times,serif" font-size="10.00" fill="#000000">: NUMBER</text>
<polygon fill="none" stroke="#000000" points="739.6877,-123.083 739.6877,-145.083 841.6877,-145.083 841.6877,-123.083 739.6877,-123.083"/>
<text text-anchor="start" x="744.6877" y="-131.083" font-family="Times,serif" font-size="10.00" fill="#000000">type: ENUM</text>
<polygon fill="none" stroke="#000000" points="739.6877,-101.083 739.6877,-123.083 841.6877,-123.083 841.6877,-101.083 739.6877,-101.083"/>
<text text-anchor="start" x="744.6877" y="-109.083" font-family="Times,serif" font-size="10.00" fill="#000000">date: DATE</text>
<polygon fill="none" stroke="#000000" points="739.6877,-79.083 739.6877,-101.083 841.6877,-101.083 841.6877,-79.083 739.6877,-79.083"/>
<text text-anchor="start" x="744.6877" y="-87.083" font-family="Times,serif" font-size="10.00" fill="#000000">createdAt: DATE</text>
<polygon fill="none" stroke="#000000" points="739.6877,-57.083 739.6877,-79.083 841.6877,-79.083 841.6877,-57.083 739.6877,-57.083"/>
<text text-anchor="start" x="744.6877" y="-65.083" font-family="Times,serif" font-size="10.00" fill="#000000">updatedAt: DATE</text>
<polygon fill="none" stroke="#000000" points="739.6877,-35.083 739.6877,-57.083 841.6877,-57.083 841.6877,-35.083 739.6877,-35.083"/>
<text text-anchor="start" x="744.6877" y="-43.083" font-family="Times,serif" font-size="10.00" fill="#000000">deletedAt: DATE</text>
<polygon fill="none" stroke="#000000" points="739.6877,-13.083 739.6877,-35.083 841.6877,-35.083 841.6877,-13.083 739.6877,-13.083"/>
<text text-anchor="start" x="744.4497" y="-22.083" font-family="Times,serif" font-style="italic" text-decoration="underline" font-size="10.00" fill="#000000">CalendarId</text>
<text text-anchor="start" x="788.8727" y="-22.083" font-family="Times,serif" font-size="10.00" fill="#000000">: NUMBER</text>
</g>
<!-- Occurrence&#45;&gt;Calendar -->
<g id="edge11" class="edge">
<title>Occurrence&#45;&gt;Calendar</title>
<path fill="none" stroke="#000000" stroke-width=".75" d="M734.7341,-149.1411C701.4875,-177.6963 660.0317,-213.3024 629.6973,-239.3564"/>
<polygon fill="#000000" stroke="#000000" stroke-width=".75" points="735.0258,-148.8905 741.3367,-147.0294 737.3017,-146.9358 739.5775,-144.9812 739.5775,-144.9812 739.5775,-144.9812 737.3017,-146.9358 737.8183,-142.9329 735.0258,-148.8905 735.0258,-148.8905"/>
</g>
<!-- Formation -->
<g id="node4" class="node">
<title>Formation</title>
<polygon fill="#add8e6" stroke="transparent" points="253.3661,-701.2315 253.3661,-723.2315 352.3661,-723.2315 352.3661,-701.2315 253.3661,-701.2315"/>
<polygon fill="none" stroke="#000000" points="253.3661,-701.2315 253.3661,-723.2315 352.3661,-723.2315 352.3661,-701.2315 253.3661,-701.2315"/>
<text text-anchor="start" x="282.0341" y="-710.2315" font-family="Times,serif" font-weight="bold" font-size="10.00" fill="#000000">Formation</text>
<polygon fill="none" stroke="#000000" points="253.3661,-679.2315 253.3661,-701.2315 352.3661,-701.2315 352.3661,-679.2315 253.3661,-679.2315"/>
<text text-anchor="start" x="258.3661" y="-688.2315" font-family="Times,serif" text-decoration="underline" font-size="10.00" fill="#000000">id</text>
<text text-anchor="start" x="266.1451" y="-688.2315" font-family="Times,serif" font-size="10.00" fill="#000000">: NUMBER</text>
<polygon fill="none" stroke="#000000" points="253.3661,-657.2315 253.3661,-679.2315 352.3661,-679.2315 352.3661,-657.2315 253.3661,-657.2315"/>
<text text-anchor="start" x="258.3661" y="-665.2315" font-family="Times,serif" font-size="10.00" fill="#000000">name: STRING</text>
<polygon fill="none" stroke="#000000" points="253.3661,-635.2315 253.3661,-657.2315 352.3661,-657.2315 352.3661,-635.2315 253.3661,-635.2315"/>
<text text-anchor="start" x="258.3661" y="-643.2315" font-family="Times,serif" font-size="10.00" fill="#000000">description: STRING</text>
<polygon fill="none" stroke="#000000" points="253.3661,-613.2315 253.3661,-635.2315 352.3661,-635.2315 352.3661,-613.2315 253.3661,-613.2315"/>
<text text-anchor="start" x="258.3661" y="-621.2315" font-family="Times,serif" font-size="10.00" fill="#000000">defender: NUMBER</text>
<polygon fill="none" stroke="#000000" points="253.3661,-591.2315 253.3661,-613.2315 352.3661,-613.2315 352.3661,-591.2315 253.3661,-591.2315"/>
<text text-anchor="start" x="258.0136" y="-599.2315" font-family="Times,serif" font-size="10.00" fill="#000000">midfielder: NUMBER</text>
<polygon fill="none" stroke="#000000" points="253.3661,-569.2315 253.3661,-591.2315 352.3661,-591.2315 352.3661,-569.2315 253.3661,-569.2315"/>
<text text-anchor="start" x="258.3661" y="-577.2315" font-family="Times,serif" font-size="10.00" fill="#000000">forward: NUMBER</text>
<polygon fill="none" stroke="#000000" points="253.3661,-547.2315 253.3661,-569.2315 352.3661,-569.2315 352.3661,-547.2315 253.3661,-547.2315"/>
<text text-anchor="start" x="258.3661" y="-555.2315" font-family="Times,serif" font-size="10.00" fill="#000000">createdAt: DATE</text>
<polygon fill="none" stroke="#000000" points="253.3661,-525.2315 253.3661,-547.2315 352.3661,-547.2315 352.3661,-525.2315 253.3661,-525.2315"/>
<text text-anchor="start" x="258.3661" y="-533.2315" font-family="Times,serif" font-size="10.00" fill="#000000">updatedAt: DATE</text>
<polygon fill="none" stroke="#000000" points="253.3661,-503.2315 253.3661,-525.2315 352.3661,-525.2315 352.3661,-503.2315 253.3661,-503.2315"/>
<text text-anchor="start" x="258.3661" y="-511.2315" font-family="Times,serif" font-size="10.00" fill="#000000">deletedAt: DATE</text>
</g>
<!-- Game -->
<g id="node5" class="node">
<title>Game</title>
<polygon fill="#add8e6" stroke="transparent" points="819.5,-866 819.5,-888 902.5,-888 902.5,-866 819.5,-866"/>
<polygon fill="none" stroke="#000000" points="819.5,-866 819.5,-888 902.5,-888 902.5,-866 819.5,-866"/>
<text text-anchor="start" x="849.062" y="-875" font-family="Times,serif" font-weight="bold" font-size="10.00" fill="#000000">Game</text>
<polygon fill="none" stroke="#000000" points="819.5,-844 819.5,-866 902.5,-866 902.5,-844 819.5,-844"/>
<text text-anchor="start" x="824.5" y="-853" font-family="Times,serif" text-decoration="underline" font-size="10.00" fill="#000000">id</text>
<text text-anchor="start" x="832.279" y="-853" font-family="Times,serif" font-size="10.00" fill="#000000">: NUMBER</text>
<polygon fill="none" stroke="#000000" points="819.5,-822 819.5,-844 902.5,-844 902.5,-822 819.5,-822"/>
<text text-anchor="start" x="824.5" y="-830" font-family="Times,serif" font-size="10.00" fill="#000000">start: DATE</text>
<polygon fill="none" stroke="#000000" points="819.5,-800 819.5,-822 902.5,-822 902.5,-800 819.5,-800"/>
<text text-anchor="start" x="824.5" y="-808" font-family="Times,serif" font-size="10.00" fill="#000000">day: DATE</text>
<polygon fill="none" stroke="#000000" points="819.5,-778 819.5,-800 902.5,-800 902.5,-778 819.5,-778"/>
<text text-anchor="start" x="824.5" y="-786" font-family="Times,serif" font-size="10.00" fill="#000000">createdAt: DATE</text>
<polygon fill="none" stroke="#000000" points="819.5,-756 819.5,-778 902.5,-778 902.5,-756 819.5,-756"/>
<text text-anchor="start" x="824.205" y="-764" font-family="Times,serif" font-size="10.00" fill="#000000">updatedAt: DATE</text>
</g>
<!-- Team -->
<g id="node6" class="node">
<title>Team</title>
<polygon fill="#add8e6" stroke="transparent" points="452.2943,-480.2467 452.2943,-502.2467 560.2943,-502.2467 560.2943,-480.2467 452.2943,-480.2467"/>
<polygon fill="none" stroke="#000000" points="452.2943,-480.2467 452.2943,-502.2467 560.2943,-502.2467 560.2943,-480.2467 452.2943,-480.2467"/>
<text text-anchor="start" x="494.9113" y="-489.2467" font-family="Times,serif" font-weight="bold" font-size="10.00" fill="#000000">Team</text>
<polygon fill="none" stroke="#000000" points="452.2943,-458.2467 452.2943,-480.2467 560.2943,-480.2467 560.2943,-458.2467 452.2943,-458.2467"/>
<text text-anchor="start" x="457.2943" y="-467.2467" font-family="Times,serif" text-decoration="underline" font-size="10.00" fill="#000000">id</text>
<text text-anchor="start" x="465.0733" y="-467.2467" font-family="Times,serif" font-size="10.00" fill="#000000">: NUMBER</text>
<polygon fill="none" stroke="#000000" points="452.2943,-436.2467 452.2943,-458.2467 560.2943,-458.2467 560.2943,-436.2467 452.2943,-436.2467"/>
<text text-anchor="start" x="457.2943" y="-444.2467" font-family="Times,serif" font-size="10.00" fill="#000000">name: STRING</text>
<polygon fill="none" stroke="#000000" points="452.2943,-414.2467 452.2943,-436.2467 560.2943,-436.2467 560.2943,-414.2467 452.2943,-414.2467"/>
<text text-anchor="start" x="457.2943" y="-422.2467" font-family="Times,serif" font-size="10.00" fill="#000000">createdAt: DATE</text>
<polygon fill="none" stroke="#000000" points="452.2943,-392.2467 452.2943,-414.2467 560.2943,-414.2467 560.2943,-392.2467 452.2943,-392.2467"/>
<text text-anchor="start" x="457.2943" y="-400.2467" font-family="Times,serif" font-size="10.00" fill="#000000">updatedAt: DATE</text>
<polygon fill="none" stroke="#000000" points="452.2943,-370.2467 452.2943,-392.2467 560.2943,-392.2467 560.2943,-370.2467 452.2943,-370.2467"/>
<text text-anchor="start" x="457.2943" y="-378.2467" font-family="Times,serif" font-size="10.00" fill="#000000">deletedAt: DATE</text>
<polygon fill="none" stroke="#000000" points="452.2943,-348.2467 452.2943,-370.2467 560.2943,-370.2467 560.2943,-348.2467 452.2943,-348.2467"/>
<text text-anchor="start" x="457.2713" y="-357.2467" font-family="Times,serif" font-style="italic" text-decoration="underline" font-size="10.00" fill="#000000">FormationId</text>
<text text-anchor="start" x="507.2643" y="-357.2467" font-family="Times,serif" font-size="10.00" fill="#000000">: NUMBER</text>
</g>
<!-- Team&#45;&gt;Formation -->
<g id="edge12" class="edge">
<title>Team&#45;&gt;Formation</title>
<path fill="none" stroke="#000000" stroke-width=".75" d="M447.7679,-479.1975C417.5394,-507.0626 381.0465,-540.7025 352.1822,-567.3101"/>
<polygon fill="#000000" stroke="#000000" stroke-width=".75" points="447.7691,-479.1964 454.0107,-477.1149 449.9749,-477.163 452.1807,-475.1297 452.1807,-475.1297 452.1807,-475.1297 449.9749,-477.163 450.3507,-473.1445 447.7691,-479.1964 447.7691,-479.1964"/>
</g>
<!-- TeamPlayer -->
<g id="node10" class="node">
<title>TeamPlayer</title>
<polygon fill="#add8e6" stroke="transparent" points="250.0327,-370.6655 250.0327,-392.6655 341.0327,-392.6655 341.0327,-370.6655 250.0327,-370.6655"/>
<polygon fill="none" stroke="#000000" points="250.0327,-370.6655 250.0327,-392.6655 341.0327,-392.6655 341.0327,-370.6655 250.0327,-370.6655"/>
<text text-anchor="start" x="271.3772" y="-379.6655" font-family="Times,serif" font-weight="bold" font-size="10.00" fill="#000000">TeamPlayer</text>
<polygon fill="none" stroke="#000000" points="250.0327,-348.6655 250.0327,-370.6655 341.0327,-370.6655 341.0327,-348.6655 250.0327,-348.6655"/>
<text text-anchor="start" x="255.0327" y="-357.6655" font-family="Times,serif" text-decoration="underline" font-size="10.00" fill="#000000">id</text>
<text text-anchor="start" x="262.8117" y="-357.6655" font-family="Times,serif" font-size="10.00" fill="#000000">: NUMBER</text>
<polygon fill="none" stroke="#000000" points="250.0327,-326.6655 250.0327,-348.6655 341.0327,-348.6655 341.0327,-326.6655 250.0327,-326.6655"/>
<text text-anchor="start" x="255.0327" y="-335.6655" font-family="Times,serif" font-style="italic" text-decoration="underline" font-size="10.00" fill="#000000">TeamId</text>
<text text-anchor="start" x="286.1277" y="-335.6655" font-family="Times,serif" font-size="10.00" fill="#000000">: NUMBER</text>
<polygon fill="none" stroke="#000000" points="250.0327,-304.6655 250.0327,-326.6655 341.0327,-326.6655 341.0327,-304.6655 250.0327,-304.6655"/>
<text text-anchor="start" x="254.5692" y="-313.6655" font-family="Times,serif" font-style="italic" text-decoration="underline" font-size="10.00" fill="#000000">PlayerId</text>
<text text-anchor="start" x="288.4432" y="-313.6655" font-family="Times,serif" font-size="10.00" fill="#000000">: NUMBER</text>
</g>
<!-- Team&#45;&gt;TeamPlayer -->
<g id="edge5" class="edge">
<title>Team&#45;&gt;TeamPlayer</title>
<path fill="none" stroke="#000000" stroke-width=".75" d="M452.1635,-405.6246C419.7081,-393.8597 378.6647,-378.9816 346.6648,-367.3819"/>
<polygon fill="#000000" stroke="#000000" stroke-width=".75" points="346.4399,-367.3004 341.7193,-362.7172 343.6195,-366.278 340.7991,-365.2556 340.7991,-365.2556 340.7991,-365.2556 343.6195,-366.278 339.8789,-367.7939 346.4399,-367.3004 346.4399,-367.3004"/>
</g>
<!-- Team&#45;&gt;TeamCalandar -->
<g id="edge6" class="edge">
<title>Team&#45;&gt;TeamCalandar</title>
<path fill="none" stroke="#000000" stroke-width=".75" d="M504.5883,-348.0329C503.2913,-289.3351 501.5315,-209.6842 500.3309,-155.3468"/>
<polygon fill="#000000" stroke="#000000" stroke-width=".75" points="500.3272,-155.1784 502.8939,-149.1201 500.2609,-152.1791 500.1946,-149.1798 500.1946,-149.1798 500.1946,-149.1798 500.2609,-152.1791 497.4953,-149.2395 500.3272,-155.1784 500.3272,-155.1784"/>
</g>
<!-- Team&#45;&gt;ChampionshipTeam -->
<g id="edge7" class="edge">
<title>Team&#45;&gt;ChampionshipTeam</title>
<path fill="none" stroke="#000000" stroke-width=".75" d="M519.813,-502.3864C523.3012,-522.2906 527.0094,-543.4499 530.3382,-562.4445"/>
<polygon fill="#000000" stroke="#000000" stroke-width=".75" points="530.4159,-562.8882 528.7922,-569.2643 530.9337,-565.8432 531.4516,-568.7982 531.4516,-568.7982 531.4516,-568.7982 530.9337,-565.8432 534.1111,-568.3321 530.4159,-562.8882 530.4159,-562.8882"/>
</g>
<!-- Player -->
<g id="node7" class="node">
<title>Player</title>
<polygon fill="#add8e6" stroke="transparent" points="227.9136,-176 227.9136,-198 330.9136,-198 330.9136,-176 227.9136,-176"/>
<polygon fill="none" stroke="#000000" points="227.9136,-176 227.9136,-198 330.9136,-198 330.9136,-176 227.9136,-176"/>
<text text-anchor="start" x="266.6411" y="-185" font-family="Times,serif" font-weight="bold" font-size="10.00" fill="#000000">Player</text>
<polygon fill="none" stroke="#000000" points="227.9136,-154 227.9136,-176 330.9136,-176 330.9136,-154 227.9136,-154"/>
<text text-anchor="start" x="232.9136" y="-163" font-family="Times,serif" text-decoration="underline" font-size="10.00" fill="#000000">id</text>
<text text-anchor="start" x="240.6926" y="-163" font-family="Times,serif" font-size="10.00" fill="#000000">: NUMBER</text>
<polygon fill="none" stroke="#000000" points="227.9136,-132 227.9136,-154 330.9136,-154 330.9136,-132 227.9136,-132"/>
<text text-anchor="start" x="232.9136" y="-140" font-family="Times,serif" font-size="10.00" fill="#000000">firstName: STRING</text>
<polygon fill="none" stroke="#000000" points="227.9136,-110 227.9136,-132 330.9136,-132 330.9136,-110 227.9136,-110"/>
<text text-anchor="start" x="232.9006" y="-118" font-family="Times,serif" font-size="10.00" fill="#000000">secondName: STRING</text>
<polygon fill="none" stroke="#000000" points="227.9136,-88 227.9136,-110 330.9136,-110 330.9136,-88 227.9136,-88"/>
<text text-anchor="start" x="232.9136" y="-96" font-family="Times,serif" font-size="10.00" fill="#000000">birthday: DATE</text>
<polygon fill="none" stroke="#000000" points="227.9136,-66 227.9136,-88 330.9136,-88 330.9136,-66 227.9136,-66"/>
<text text-anchor="start" x="232.9136" y="-74" font-family="Times,serif" font-size="10.00" fill="#000000">height: NUMBER</text>
<polygon fill="none" stroke="#000000" points="227.9136,-44 227.9136,-66 330.9136,-66 330.9136,-44 227.9136,-44"/>
<text text-anchor="start" x="232.9136" y="-52" font-family="Times,serif" font-size="10.00" fill="#000000">createdAt: DATE</text>
<polygon fill="none" stroke="#000000" points="227.9136,-22 227.9136,-44 330.9136,-44 330.9136,-22 227.9136,-22"/>
<text text-anchor="start" x="232.9136" y="-30" font-family="Times,serif" font-size="10.00" fill="#000000">updatedAt: DATE</text>
<polygon fill="none" stroke="#000000" points="227.9136,0 227.9136,-22 330.9136,-22 330.9136,0 227.9136,0"/>
<text text-anchor="start" x="232.9136" y="-8" font-family="Times,serif" font-size="10.00" fill="#000000">deletedAt: DATE</text>
</g>
<!-- PlayerSkill -->
<g id="node9" class="node">
<title>PlayerSkill</title>
<polygon fill="#add8e6" stroke="transparent" points="9.6694,-577.8589 9.6694,-599.8589 100.6694,-599.8589 100.6694,-577.8589 9.6694,-577.8589"/>
<polygon fill="none" stroke="#000000" points="9.6694,-577.8589 9.6694,-599.8589 100.6694,-599.8589 100.6694,-577.8589 9.6694,-577.8589"/>
<text text-anchor="start" x="32.9489" y="-586.8589" font-family="Times,serif" font-weight="bold" font-size="10.00" fill="#000000">PlayerSkill</text>
<polygon fill="none" stroke="#000000" points="9.6694,-555.8589 9.6694,-577.8589 100.6694,-577.8589 100.6694,-555.8589 9.6694,-555.8589"/>
<text text-anchor="start" x="14.6694" y="-564.8589" font-family="Times,serif" text-decoration="underline" font-size="10.00" fill="#000000">id</text>
<text text-anchor="start" x="22.4484" y="-564.8589" font-family="Times,serif" font-size="10.00" fill="#000000">: NUMBER</text>
<polygon fill="none" stroke="#000000" points="9.6694,-533.8589 9.6694,-555.8589 100.6694,-555.8589 100.6694,-533.8589 9.6694,-533.8589"/>
<text text-anchor="start" x="14.2059" y="-542.8589" font-family="Times,serif" font-style="italic" text-decoration="underline" font-size="10.00" fill="#000000">PlayerId</text>
<text text-anchor="start" x="48.0799" y="-542.8589" font-family="Times,serif" font-size="10.00" fill="#000000">: NUMBER</text>
<polygon fill="none" stroke="#000000" points="9.6694,-511.8589 9.6694,-533.8589 100.6694,-533.8589 100.6694,-511.8589 9.6694,-511.8589"/>
<text text-anchor="start" x="14.6694" y="-520.8589" font-family="Times,serif" font-style="italic" text-decoration="underline" font-size="10.00" fill="#000000">SkillId</text>
<text text-anchor="start" x="41.8944" y="-520.8589" font-family="Times,serif" font-size="10.00" fill="#000000">: NUMBER</text>
<polygon fill="none" stroke="#000000" points="9.6694,-489.8589 9.6694,-511.8589 100.6694,-511.8589 100.6694,-489.8589 9.6694,-489.8589"/>
<text text-anchor="start" x="14.6694" y="-497.8589" font-family="Times,serif" font-size="10.00" fill="#000000">value: NUMBER</text>
</g>
<!-- Player&#45;&gt;PlayerSkill -->
<g id="edge8" class="edge">
<title>Player&#45;&gt;PlayerSkill</title>
<path fill="none" stroke="#000000" stroke-width=".75" d="M229.0073,-198.2274C184.9843,-285.7572 122.2371,-410.5157 85.2559,-484.0447"/>
<polygon fill="#000000" stroke="#000000" stroke-width=".75" points="85.1147,-484.3253 80.0067,-488.4724 83.7668,-487.0054 82.4188,-489.6856 82.4188,-489.6856 82.4188,-489.6856 83.7668,-487.0054 84.8309,-490.8987 85.1147,-484.3253 85.1147,-484.3253"/>
</g>
<!-- Player&#45;&gt;TeamPlayer -->
<g id="edge9" class="edge">
<title>Player&#45;&gt;TeamPlayer</title>
<path fill="none" stroke="#000000" stroke-width=".75" d="M285.3075,-198.033C287.5313,-232.4776 289.9321,-269.6626 291.7919,-298.4688"/>
<polygon fill="#000000" stroke="#000000" stroke-width=".75" points="291.7936,-298.497 289.4859,-304.6586 291.9869,-301.4908 292.1803,-304.4846 292.1803,-304.4846 292.1803,-304.4846 291.9869,-301.4908 294.8747,-304.3106 291.7936,-298.497 291.7936,-298.497"/>
</g>
<!-- Skill -->
<g id="node8" class="node">
<title>Skill</title>
<polygon fill="#add8e6" stroke="transparent" points="0,-246.6049 0,-268.6049 96,-268.6049 96,-246.6049 0,-246.6049"/>
<polygon fill="none" stroke="#000000" points="0,-246.6049 0,-268.6049 96,-268.6049 96,-246.6049 0,-246.6049"/>
<text text-anchor="start" x="38.552" y="-255.6049" font-family="Times,serif" font-weight="bold" font-size="10.00" fill="#000000">Skill</text>
<polygon fill="none" stroke="#000000" points="0,-224.6049 0,-246.6049 96,-246.6049 96,-224.6049 0,-224.6049"/>
<text text-anchor="start" x="5" y="-233.6049" font-family="Times,serif" text-decoration="underline" font-size="10.00" fill="#000000">id</text>
<text text-anchor="start" x="12.779" y="-233.6049" font-family="Times,serif" font-size="10.00" fill="#000000">: NUMBER</text>
<polygon fill="none" stroke="#000000" points="0,-202.6049 0,-224.6049 96,-224.6049 96,-202.6049 0,-202.6049"/>
<text text-anchor="start" x="5" y="-210.6049" font-family="Times,serif" font-size="10.00" fill="#000000">name: STRING</text>
<polygon fill="none" stroke="#000000" points="0,-180.6049 0,-202.6049 96,-202.6049 96,-180.6049 0,-180.6049"/>
<text text-anchor="start" x="5" y="-188.6049" font-family="Times,serif" font-size="10.00" fill="#000000">type: ENUM</text>
<polygon fill="none" stroke="#000000" points="0,-158.6049 0,-180.6049 96,-180.6049 96,-158.6049 0,-158.6049"/>
<text text-anchor="start" x="5" y="-166.6049" font-family="Times,serif" font-size="10.00" fill="#000000">description: STRING</text>
<polygon fill="none" stroke="#000000" points="0,-136.6049 0,-158.6049 96,-158.6049 96,-136.6049 0,-136.6049"/>
<text text-anchor="start" x="4.8215" y="-144.6049" font-family="Times,serif" font-size="10.00" fill="#000000">required: BOOLEAN</text>
<polygon fill="none" stroke="#000000" points="0,-114.6049 0,-136.6049 96,-136.6049 96,-114.6049 0,-114.6049"/>
<text text-anchor="start" x="5" y="-122.6049" font-family="Times,serif" font-size="10.00" fill="#000000">createdAt: DATE</text>
<polygon fill="none" stroke="#000000" points="0,-92.6049 0,-114.6049 96,-114.6049 96,-92.6049 0,-92.6049"/>
<text text-anchor="start" x="5" y="-100.6049" font-family="Times,serif" font-size="10.00" fill="#000000">updatedAt: DATE</text>
<polygon fill="none" stroke="#000000" points="0,-70.6049 0,-92.6049 96,-92.6049 96,-70.6049 0,-70.6049"/>
<text text-anchor="start" x="5" y="-78.6049" font-family="Times,serif" font-size="10.00" fill="#000000">deletedAt: DATE</text>
</g>
<!-- Skill&#45;&gt;PlayerSkill -->
<g id="edge10" class="edge">
<title>Skill&#45;&gt;PlayerSkill</title>
<path fill="none" stroke="#000000" stroke-width=".75" d="M49.761,-268.6893C50.9731,-336.8843 52.545,-425.3275 53.5792,-483.5204"/>
<polygon fill="#000000" stroke="#000000" stroke-width=".75" points="53.5834,-483.7595 50.9905,-489.8066 53.6367,-486.7591 53.6901,-489.7586 53.6901,-489.7586 53.6901,-489.7586 53.6367,-486.7591 56.3897,-489.7106 53.5834,-483.7595 53.5834,-483.7595"/>
</g>
</g>
</svg>
