<?xml version="1.0" standalone="no"?>
<!DOCTYPE svg PUBLIC "-//W3C//DTD SVG 20010904//EN"
 "http://www.w3.org/TR/2001/REC-SVG-20010904/DTD/svg10.dtd">
<svg version="1.0" xmlns="http://www.w3.org/2000/svg"
 width="254.000000pt" height="254.000000pt" viewBox="0 0 254.000000 254.000000"
 preserveAspectRatio="xMidYMid meet">
<metadata>
Created by potrace 1.14, written by Peter Selinger 2001-2017
</metadata>
<g transform="translate(0.000000,254.000000) scale(0.100000,-0.100000)"
fill="#000000" stroke="none">
<path d="M10 1270 l0 -1270 1260 0 1260 0 0 1270 0 1270 -1260 0 -1260 0 0
-1270z m1142 747 c98 -48 178 -164 181 -264 l2 -47 -95 -17 c-52 -10 -100 -18
-105 -18 -6 -1 -16 22 -22 49 -7 28 -22 64 -33 80 -27 38 -90 58 -131 43 l-29
-11 0 110 0 110 88 -4 c71 -3 100 -10 144 -31z m-257 -467 c17 -32 60 -84 104
-125 295 -276 355 -370 349 -553 l-3 -87 -124 -3 c-115 -2 -123 -1 -115 15 4
10 10 46 12 81 6 99 -14 130 -223 337 -161 159 -186 189 -219 255 -46 94 -60
178 -47 273 18 131 92 239 192 281 l34 14 5 -216 5 -217 30 -55z m815 -125 l0
-615 -115 0 -115 0 0 608 c0 335 3 612 7 615 3 4 55 7 115 7 l108 0 0 -615z
m-886 -518 c9 -62 49 -141 84 -165 28 -21 42 -22 221 -22 105 0 191 -4 191 -8
0 -19 -60 -101 -96 -130 -61 -51 -130 -72 -234 -72 -111 0 -179 23 -247 85
-60 53 -98 120 -123 221 -32 124 -33 123 53 127 39 1 88 4 108 5 36 2 37 1 43
-41z m1276 -272 l0 -115 -307 2 -308 3 -3 113 -3 112 311 0 310 0 0 -115z"/>
</g>
</svg>
